G04 ===== Begin FILE IDENTIFICATION =====*
G04 File Format:  Gerber RS274X*
G04 ===== End FILE IDENTIFICATION =====*
%FSLAX24Y24*%
%MOIN*%
%SFA1.0000B1.0000*%
%OFA0.0B0.0*%
%ADD14R,0.023622X2.854331*%
%ADD15R,1.751969X0.023622*%
%ADD16R,1.779528X0.023622*%
%ADD17R,0.023622X2.846457*%
%ADD18R,0.078740X0.468504*%
%LNcond*%
%IPPOS*%
%LPD*%
G75*
D14*
X11929Y9980D03*
D15*
X3130Y24213D03*
D16*
X3150Y-4055D03*
D17*
X-5669Y10059D03*
D18*
X-472Y768D03*
G36*
G01X-669Y2638D02*
G01Y21850D01*
G01X-425D01*
G01Y21662D01*
G01X-599Y21488D01*
G01X2126Y18781D01*
G01Y18706D01*
G01X-512D01*
G01Y18460D01*
G01X-509D01*
G01X887Y15162D01*
G01X-512D01*
G01Y14916D01*
G01X1102D01*
G01Y18460D01*
G01X2126D01*
G01Y18781D01*
G01X2649Y18262D01*
G01X-433Y11260D01*
G01X-519Y11172D01*
G01X1614Y9072D01*
G01Y8981D01*
G01X-512D01*
G01Y8735D01*
G01X-452D01*
G01X649Y6147D01*
G01X-591D01*
G01Y5901D01*
G01X866D01*
G01Y6147D01*
G01X861D01*
G01X753Y8735D01*
G01X1614D01*
G01Y9072D01*
G01X1961Y8731D01*
G01X2134Y8907D01*
G01X-177Y11178D01*
G01X3369Y14111D01*
G01Y14019D01*
G01X3324Y13777D01*
G01X3357Y13771D01*
G01X1811Y10906D01*
G01X1923Y10854D01*
G01X236Y11416D01*
G01X158Y11182D01*
G01X2874Y10277D01*
G01X2913Y10394D01*
G01X2952Y10510D01*
G01X2931Y10517D01*
G01X3563Y13722D01*
G01X4584Y13541D01*
G01X4629Y13782D01*
G01X3369Y14019D01*
G01Y14111D01*
G01X5256Y15672D01*
G01X5268Y15661D01*
G01X5441Y15835D01*
G01X2779Y18480D01*
G01X2756Y18504D01*
G01X2755Y18503D01*
G01X-425Y21662D01*
G01Y21850D01*
G01X2564D01*
G01Y21654D01*
G01X2318D01*
G01Y19291D01*
G01X2564D01*
G01Y19293D01*
G01X5192Y19328D01*
G01Y16575D01*
G01X5438D01*
G01Y21535D01*
G01X5192D01*
G01Y21439D01*
G01X2603Y19545D01*
G01X2564Y21850D01*
G01X8937D01*
G01X-669Y2638D01*
G37*
M02*

